<svg xmlns="http://www.w3.org/2000/svg" xmlns:xlink="http://www.w3.org/1999/xlink" width="500" zoomAndPan="magnify" viewBox="0 0 375 374.999991" height="500" preserveAspectRatio="xMidYMid meet" version="1.0"><defs><g/><clipPath id="b66241d32c"><path d="M 119.308594 140 L 188 140 L 188 200.019531 L 119.308594 200.019531 Z M 119.308594 140 " clip-rule="nonzero"/></clipPath><clipPath id="92bceef4bc"><path d="M 187 108.519531 L 255.808594 108.519531 L 255.808594 169 L 187 169 Z M 187 108.519531 " clip-rule="nonzero"/></clipPath></defs><rect x="-37.5" width="450" fill="#ffffff" y="-37.499999" height="449.999989" fill-opacity="1"/><rect x="-37.5" width="450" fill="#0f1120" y="-37.499999" height="449.999989" fill-opacity="1"/><g clip-path="url(#b66241d32c)"><path fill="#0652e9" d="M 165.230469 182.664062 L 165.230469 190.964844 L 127.636719 173.5 L 127.636719 166.765625 L 165.230469 149.296875 L 165.230469 157.601562 L 136.800781 170.054688 L 136.800781 170.210938 Z M 187.558594 140.074219 L 124.6875 140.074219 C 121.71875 140.074219 119.3125 142.480469 119.3125 145.449219 L 119.3125 194.816406 C 119.3125 197.785156 121.71875 200.191406 124.6875 200.191406 L 170.105469 200.191406 L 187.558594 140.074219 " fill-opacity="1" fill-rule="nonzero"/></g><g clip-path="url(#92bceef4bc)"><path fill="#62e1e9" d="M 247.378906 142.210938 L 209.785156 159.441406 L 209.785156 151.136719 L 238.839844 138.683594 L 238.839844 138.527344 L 209.785156 126.074219 L 209.785156 117.773438 L 247.378906 135.003906 Z M 205.011719 108.546875 L 187.558594 168.664062 L 250.328125 168.664062 C 253.292969 168.664062 255.699219 166.257812 255.699219 163.289062 L 255.699219 113.921875 C 255.699219 110.953125 253.292969 108.546875 250.328125 108.546875 L 205.011719 108.546875 " fill-opacity="1" fill-rule="nonzero"/></g><g fill="#ffffff" fill-opacity="1"><g transform="translate(77.026908, 236.784858)"><g><path d="M 12.074219 0.28125 C 16.238281 0.28125 19.84375 -2.066406 21.628906 -5.496094 L 17.636719 -7.558594 C 16.625 -5.566406 14.558594 -4.234375 12.074219 -4.234375 C 8.539062 -4.234375 5.84375 -6.964844 5.84375 -10.5 C 5.84375 -14.035156 8.539062 -16.761719 12.074219 -16.761719 C 14.558594 -16.761719 16.625 -15.433594 17.636719 -13.4375 L 21.628906 -15.503906 C 19.84375 -18.933594 16.238281 -21.277344 12.074219 -21.277344 C 6.125 -21.277344 1.292969 -16.449219 1.292969 -10.5 C 1.292969 -4.550781 6.125 0.28125 12.074219 0.28125 Z M 12.074219 0.28125 "/></g></g></g><g fill="#ffffff" fill-opacity="1"><g transform="translate(100.795791, 236.784858)"><g><path d="M 12.074219 0.28125 C 18.058594 0.28125 22.851562 -4.550781 22.851562 -10.5 C 22.851562 -16.449219 18.058594 -21.277344 12.074219 -21.277344 C 6.125 -21.277344 1.292969 -16.449219 1.292969 -10.5 C 1.292969 -4.550781 6.125 0.28125 12.074219 0.28125 Z M 12.074219 -4.234375 C 8.539062 -4.234375 5.84375 -6.964844 5.84375 -10.5 C 5.84375 -14.035156 8.539062 -16.761719 12.074219 -16.761719 C 15.644531 -16.761719 18.339844 -14.035156 18.339844 -10.5 C 18.339844 -6.964844 15.644531 -4.234375 12.074219 -4.234375 Z M 12.074219 -4.234375 "/></g></g></g><g fill="#ffffff" fill-opacity="1"><g transform="translate(126.209438, 236.784858)"><g><path d="M 2.066406 0 L 8.996094 0 C 14.769531 0 19.492188 -4.691406 19.492188 -10.5 C 19.492188 -16.308594 14.769531 -21 8.996094 -21 L 2.066406 -21 Z M 6.683594 -4.09375 L 6.683594 -16.902344 L 8.960938 -16.902344 C 12.285156 -16.902344 14.875 -14.140625 14.875 -10.5 C 14.875 -6.859375 12.285156 -4.09375 8.960938 -4.09375 Z M 6.683594 -4.09375 "/></g></g></g><g fill="#ffffff" fill-opacity="1"><g transform="translate(148.228568, 236.784858)"><g><path d="M 4.515625 -22.78125 C 5.878906 -22.78125 7 -23.902344 7 -25.234375 C 7 -26.597656 5.878906 -27.683594 4.515625 -27.683594 C 3.183594 -27.683594 2.066406 -26.597656 2.066406 -25.234375 C 2.066406 -23.902344 3.183594 -22.78125 4.515625 -22.78125 Z M 2.238281 0 L 6.859375 0 L 6.859375 -21 L 2.238281 -21 Z M 2.238281 0 "/></g></g></g><g fill="#ffffff" fill-opacity="1"><g transform="translate(158.524324, 236.784858)"><g><path d="M 17.148438 -21 L 17.148438 -7.105469 L 6.824219 -21 L 2.066406 -21 L 2.066406 0 L 6.683594 0 L 6.683594 -13.929688 L 16.972656 0 L 21.734375 0 L 21.734375 -21 Z M 17.148438 -21 "/></g></g></g><g fill="#ffffff" fill-opacity="1"><g transform="translate(183.588022, 236.784858)"><g><path d="M 12.074219 -11.515625 L 12.074219 -7.910156 L 17.847656 -7.910156 C 16.867188 -5.703125 14.699219 -4.234375 12.109375 -4.234375 C 8.574219 -4.234375 5.84375 -6.964844 5.84375 -10.5 C 5.84375 -14.035156 8.574219 -16.761719 12.109375 -16.761719 C 14.59375 -16.761719 16.625 -15.433594 17.671875 -13.4375 L 21.664062 -15.503906 C 19.84375 -18.933594 16.238281 -21.277344 12.109375 -21.277344 C 6.125 -21.277344 1.328125 -16.449219 1.328125 -10.5 C 1.328125 -4.550781 6.125 0.28125 12.109375 0.28125 C 18.058594 0.28125 22.886719 -4.550781 22.886719 -10.5 L 22.886719 -11.515625 Z M 12.074219 -11.515625 "/></g></g></g><g fill="#ffffff" fill-opacity="1"><g transform="translate(209.036671, 236.784858)"><g/></g></g><g fill="#ffffff" fill-opacity="1"><g transform="translate(218.667514, 236.784858)"><g><path d="M 15.011719 -21 L -0.175781 -21 L -0.175781 -16.902344 L 5.144531 -16.902344 L 5.144531 0 L 9.730469 0 L 9.730469 -16.902344 L 15.011719 -16.902344 Z M 15.011719 -21 "/></g></g></g><g fill="#ffffff" fill-opacity="1"><g transform="translate(234.737467, 236.784858)"><g><path d="M 14.875 -16.9375 L 14.875 -21 L 2.238281 -21 L 2.238281 0 L 14.875 0 L 14.875 -4.058594 L 6.859375 -4.058594 L 6.859375 -8.46875 L 13.71875 -8.46875 L 13.71875 -12.527344 L 6.859375 -12.527344 L 6.859375 -16.9375 Z M 14.875 -16.9375 "/></g></g></g><g fill="#ffffff" fill-opacity="1"><g transform="translate(252.277219, 236.784858)"><g><path d="M 12.074219 0.28125 C 16.238281 0.28125 19.84375 -2.066406 21.628906 -5.496094 L 17.636719 -7.558594 C 16.625 -5.566406 14.558594 -4.234375 12.074219 -4.234375 C 8.539062 -4.234375 5.84375 -6.964844 5.84375 -10.5 C 5.84375 -14.035156 8.539062 -16.761719 12.074219 -16.761719 C 14.558594 -16.761719 16.625 -15.433594 17.636719 -13.4375 L 21.628906 -15.503906 C 19.84375 -18.933594 16.238281 -21.277344 12.074219 -21.277344 C 6.125 -21.277344 1.292969 -16.449219 1.292969 -10.5 C 1.292969 -4.550781 6.125 0.28125 12.074219 0.28125 Z M 12.074219 0.28125 "/></g></g></g><g fill="#ffffff" fill-opacity="1"><g transform="translate(276.046104, 236.784858)"><g><path d="M 15.222656 -21 L 15.222656 -12.5625 L 6.683594 -12.5625 L 6.683594 -21 L 2.066406 -21 L 2.066406 0 L 6.683594 0 L 6.683594 -8.46875 L 15.222656 -8.46875 L 15.222656 0 L 19.808594 0 L 19.808594 -21 Z M 15.222656 -21 "/></g></g></g><g fill="#ffffff" fill-opacity="1"><g transform="translate(110.412163, 263.17888)"><g><path d="M 1.09375 0 L 3.554688 0 C 6.03125 0 8.054688 -2.011719 8.054688 -4.5 C 8.054688 -6.988281 6.03125 -9 3.554688 -9 L 1.09375 -9 Z M 2.039062 -0.960938 L 2.039062 -8.039062 L 3.539062 -8.039062 C 5.535156 -8.039062 7.09375 -6.523438 7.09375 -4.5 C 7.09375 -2.476562 5.535156 -0.960938 3.539062 -0.960938 Z M 2.039062 -0.960938 "/></g></g></g><g fill="#ffffff" fill-opacity="1"><g transform="translate(123.222227, 263.17888)"><g><path d="M 1.648438 -9.898438 C 1.996094 -9.898438 2.296875 -10.183594 2.296875 -10.546875 C 2.296875 -10.90625 1.996094 -11.191406 1.648438 -11.191406 C 1.304688 -11.191406 1.003906 -10.90625 1.003906 -10.546875 C 1.003906 -10.183594 1.304688 -9.898438 1.648438 -9.898438 Z M 1.171875 0 L 2.128906 0 L 2.128906 -9 L 1.171875 -9 Z M 1.171875 0 "/></g></g></g><g fill="#ffffff" fill-opacity="1"><g transform="translate(130.527293, 263.17888)"><g><path d="M 5.386719 -4.769531 L 5.386719 -3.871094 L 9 -3.871094 C 8.714844 -2.128906 7.214844 -0.839844 5.398438 -0.839844 C 3.375 -0.839844 1.738281 -2.460938 1.738281 -4.5 C 1.738281 -6.539062 3.375 -8.160156 5.398438 -8.160156 C 6.765625 -8.160156 7.964844 -7.425781 8.578125 -6.316406 L 9.40625 -6.78125 C 8.625 -8.175781 7.125 -9.121094 5.398438 -9.121094 C 2.835938 -9.121094 0.78125 -7.050781 0.78125 -4.5 C 0.78125 -1.949219 2.835938 0.121094 5.398438 0.121094 C 7.949219 0.121094 10.019531 -1.949219 10.019531 -4.5 L 10.019531 -4.769531 Z M 5.386719 -4.769531 "/></g></g></g><g fill="#ffffff" fill-opacity="1"><g transform="translate(145.332359, 263.17888)"><g><path d="M 1.648438 -9.898438 C 1.996094 -9.898438 2.296875 -10.183594 2.296875 -10.546875 C 2.296875 -10.90625 1.996094 -11.191406 1.648438 -11.191406 C 1.304688 -11.191406 1.003906 -10.90625 1.003906 -10.546875 C 1.003906 -10.183594 1.304688 -9.898438 1.648438 -9.898438 Z M 1.171875 0 L 2.128906 0 L 2.128906 -9 L 1.171875 -9 Z M 1.171875 0 "/></g></g></g><g fill="#ffffff" fill-opacity="1"><g transform="translate(152.637426, 263.17888)"><g><path d="M 6.074219 -9 L 0.136719 -9 L 0.136719 -8.039062 L 2.625 -8.039062 L 2.625 0 L 3.585938 0 L 3.585938 -8.039062 L 6.074219 -8.039062 Z M 6.074219 -9 "/></g></g></g><g fill="#ffffff" fill-opacity="1"><g transform="translate(162.867499, 263.17888)"><g><path d="M 6.523438 0 L 7.574219 0 L 4.320312 -9 L 3.253906 -9 L 0 0 L 1.050781 0 L 1.785156 -2.101562 L 5.789062 -2.101562 Z M 2.101562 -3.015625 L 3.796875 -7.859375 L 5.476562 -3.015625 Z M 2.101562 -3.015625 "/></g></g></g><g fill="#ffffff" fill-opacity="1"><g transform="translate(174.462566, 263.17888)"><g><path d="M 2.054688 -0.960938 L 2.054688 -9 L 1.09375 -9 L 1.09375 0 L 5.398438 0 L 5.398438 -0.960938 Z M 2.054688 -0.960938 "/></g></g></g><g fill="#ffffff" fill-opacity="1"><g transform="translate(184.017632, 263.17888)"><g/></g></g><g fill="#ffffff" fill-opacity="1"><g transform="translate(191.652701, 263.17888)"><g><path d="M 3.359375 0.121094 C 4.890625 0.121094 6.136719 -0.796875 6.136719 -2.371094 C 6.136719 -5.429688 1.753906 -4.679688 1.753906 -6.824219 C 1.753906 -7.726562 2.488281 -8.160156 3.328125 -8.160156 C 4.019531 -8.160156 4.589844 -7.875 4.949219 -7.363281 L 5.699219 -7.996094 C 5.203125 -8.625 4.335938 -9.121094 3.300781 -9.121094 C 1.921875 -9.121094 0.796875 -8.21875 0.796875 -6.75 C 0.796875 -3.855469 5.175781 -4.574219 5.175781 -2.339844 C 5.175781 -1.378906 4.378906 -0.839844 3.375 -0.839844 C 2.355469 -0.839844 1.621094 -1.394531 1.304688 -2.21875 L 0.433594 -1.710938 C 0.898438 -0.601562 2.023438 0.121094 3.359375 0.121094 Z M 3.359375 0.121094 "/></g></g></g><g fill="#ffffff" fill-opacity="1"><g transform="translate(202.242771, 263.17888)"><g><path d="M 6.089844 -8.070312 L 6.089844 -9 L 1.171875 -9 L 1.171875 0 L 6.089844 0 L 6.089844 -0.929688 L 2.128906 -0.929688 L 2.128906 -4.035156 L 5.578125 -4.035156 L 5.578125 -4.964844 L 2.128906 -4.964844 L 2.128906 -8.070312 Z M 6.089844 -8.070312 "/></g></g></g><g fill="#ffffff" fill-opacity="1"><g transform="translate(213.252839, 263.17888)"><g><path d="M 4.738281 -4.109375 C 5.925781 -4.273438 6.824219 -5.265625 6.824219 -6.480469 C 6.824219 -7.890625 5.699219 -9 4.320312 -9 L 1.09375 -9 L 1.09375 0 L 2.054688 0 L 2.054688 -4.066406 L 3.75 -4.066406 L 6.300781 0 L 7.394531 0 Z M 2.054688 -4.980469 L 2.054688 -8.039062 L 4.261719 -8.039062 C 5.160156 -8.039062 5.863281 -7.410156 5.863281 -6.511719 C 5.863281 -5.59375 5.175781 -4.980469 4.261719 -4.980469 Z M 2.054688 -4.980469 "/></g></g></g><g fill="#ffffff" fill-opacity="1"><g transform="translate(224.802902, 263.17888)"><g><path d="M 6.523438 -9 L 3.796875 -1.230469 L 1.066406 -9 L 0 -9 L 3.253906 0 L 4.320312 0 L 7.574219 -9 Z M 6.523438 -9 "/></g></g></g><g fill="#ffffff" fill-opacity="1"><g transform="translate(236.397964, 263.17888)"><g><path d="M 1.648438 -9.898438 C 1.996094 -9.898438 2.296875 -10.183594 2.296875 -10.546875 C 2.296875 -10.90625 1.996094 -11.191406 1.648438 -11.191406 C 1.304688 -11.191406 1.003906 -10.90625 1.003906 -10.546875 C 1.003906 -10.183594 1.304688 -9.898438 1.648438 -9.898438 Z M 1.171875 0 L 2.128906 0 L 2.128906 -9 L 1.171875 -9 Z M 1.171875 0 "/></g></g></g><g fill="#ffffff" fill-opacity="1"><g transform="translate(243.703025, 263.17888)"><g><path d="M 5.355469 0.121094 C 7.078125 0.121094 8.578125 -0.824219 9.375 -2.21875 L 8.550781 -2.683594 C 7.933594 -1.574219 6.734375 -0.839844 5.355469 -0.839844 C 3.328125 -0.839844 1.695312 -2.460938 1.695312 -4.5 C 1.695312 -6.539062 3.328125 -8.160156 5.355469 -8.160156 C 6.734375 -8.160156 7.933594 -7.425781 8.550781 -6.316406 L 9.375 -6.78125 C 8.578125 -8.175781 7.078125 -9.121094 5.355469 -9.121094 C 2.804688 -9.121094 0.734375 -7.050781 0.734375 -4.5 C 0.734375 -1.949219 2.804688 0.121094 5.355469 0.121094 Z M 5.355469 0.121094 "/></g></g></g><g fill="#ffffff" fill-opacity="1"><g transform="translate(257.593085, 263.17888)"><g><path d="M 6.089844 -8.070312 L 6.089844 -9 L 1.171875 -9 L 1.171875 0 L 6.089844 0 L 6.089844 -0.929688 L 2.128906 -0.929688 L 2.128906 -4.035156 L 5.578125 -4.035156 L 5.578125 -4.964844 L 2.128906 -4.964844 L 2.128906 -8.070312 Z M 6.089844 -8.070312 "/></g></g></g></svg>